<?xml version="1.0" encoding="UTF-8"?>
<svg width="164px" height="164px" viewBox="0 0 164 164" version="1.1" xmlns="http://www.w3.org/2000/svg" xmlns:xlink="http://www.w3.org/1999/xlink">
    <title>Group 5</title>
    <defs>
        <linearGradient x1="12.0162484%" y1="10.9586506%" x2="89.9244479%" y2="89.628302%" id="linearGradient-1">
            <stop stop-color="#242021" offset="0%"></stop>
            <stop stop-color="#211D1E" offset="100%"></stop>
        </linearGradient>
        <linearGradient x1="7.90715166%" y1="7.13081089%" x2="43.7296944%" y2="39.8355164%" id="linearGradient-2">
            <stop stop-color="#332D2E" offset="0%"></stop>
            <stop stop-color="#1D1A1B" offset="100%"></stop>
        </linearGradient>
    </defs>
    <g id="Page-1" stroke="none" stroke-width="1" fill="none" fill-rule="evenodd">
        <g id="Artboard-Copy-171" transform="translate(-246.000000, -6296.000000)">
            <g id="Group-5" transform="translate(246.000000, 6296.000000)">
                <g id="Rectangle" fill="url(#linearGradient-1)" stroke="url(#linearGradient-2)" stroke-width="2">
                    <rect x="1" y="1" width="162" height="162" rx="28"></rect>
                </g>
                <g id="Apple_logo_black" transform="translate(48.000000, 35.000000)" fill="#FFFFFF" fill-rule="nonzero">
                    <path d="M66.7963395,28.8844543 C66.3047537,29.2657392 57.6257217,34.1546598 57.6257217,45.0255177 C57.6257217,57.5994486 68.6694509,62.0477731 69,62.1579221 C68.9491463,62.4290581 67.2455472,68.2500085 63.177251,74.181108 C59.5496868,79.4004755 55.7610859,84.61137 49.9976661,84.61137 C44.2342464,84.61137 42.7510134,81.2645353 36.0976539,81.2645353 C29.6138067,81.2645353 27.3084388,84.721519 22.0366048,84.721519 C16.7647709,84.721519 13.086353,79.8919094 8.85702002,73.96081 C3.95811325,66.9960047 0,56.1759847 0,45.9067097 C0,29.4351992 10.7131802,20.699537 21.2568481,20.699537 C26.8592311,20.699537 31.5292962,24.3768187 35.0466773,24.3768187 C38.3945461,24.3768187 43.6155263,20.4792391 49.9891905,20.4792391 C52.4047414,20.4792391 61.0837735,20.699537 66.7963395,28.8844543 Z M46.9633952,13.5059607 C49.5993121,10.379424 51.4639479,6.04124843 51.4639479,1.70307284 C51.4639479,1.1014899 51.4130942,0.491433954 51.3029112,0 C47.0142489,0.160986985 41.9119273,2.85540073 38.8352782,6.42253339 C36.4197273,9.16778513 34.1652131,13.5059607 34.1652131,17.9034473 C34.1652131,18.5643412 34.2753961,19.2252352 34.3262498,19.4370602 C34.5974696,19.4878982 35.0382017,19.5472092 35.4789338,19.5472092 C39.326864,19.5472092 44.1664415,16.9714174 46.9633952,13.5059607 Z" id="Shape"></path>
                </g>
            </g>
        </g>
    </g>
</svg>