<?xml version="1.0" encoding="UTF-8"?>
<svg width="164px" height="164px" viewBox="0 0 164 164" version="1.1" xmlns="http://www.w3.org/2000/svg" xmlns:xlink="http://www.w3.org/1999/xlink">
    <title>Group 10</title>
    <defs>
        <linearGradient x1="12.0162484%" y1="10.9586506%" x2="89.9244479%" y2="89.628302%" id="linearGradient-1">
            <stop stop-color="#242021" offset="0%"></stop>
            <stop stop-color="#211D1E" offset="100%"></stop>
        </linearGradient>
        <linearGradient x1="7.90715166%" y1="7.13081089%" x2="43.7296944%" y2="39.8355164%" id="linearGradient-2">
            <stop stop-color="#332D2E" offset="0%"></stop>
            <stop stop-color="#1D1A1B" offset="100%"></stop>
        </linearGradient>
    </defs>
    <g id="Page-1" stroke="none" stroke-width="1" fill="none" fill-rule="evenodd">
        <g id="Artboard-Copy-171" transform="translate(-1078.000000, -6302.000000)">
            <g id="Group-10" transform="translate(1078.000000, 6302.000000)">
                <g id="Rectangle" fill="url(#linearGradient-1)" stroke="url(#linearGradient-2)" stroke-width="2">
                    <rect x="1" y="1" width="162" height="162" rx="28"></rect>
                </g>
                <g id="Microsoft_Office_OneDrive_(2019–present)" transform="translate(31.000000, 50.000000)" fill-rule="nonzero">
                    <path d="M38.6004761,18.1650886 L38.6014556,18.1615789 L59.8256699,31 L72.4728075,25.6253535 L72.4733762,25.6275232 C75.0433013,24.5055325 77.8138835,23.9280506 80.6136877,23.9308105 C81.0801519,23.9308105 81.5412449,23.9521877 82,23.9831049 C78.8933471,11.7499143 68.9344725,2.518138 56.5996581,0.437244072 C44.2648437,-1.64364985 31.8753635,3.81793958 25,14.3671553 C25.1081171,14.3657833 25.2145912,14.3589234 25.322961,14.3589234 C30.0136634,14.3525068 34.6126789,15.6708719 38.6004761,18.1650886 Z" id="Path" fill="#0364B8"></path>
                    <path d="M38.6971751,18.791771 L38.696192,18.7952706 C34.6936187,16.3082085 30.0775625,14.9936251 25.3694796,15 C25.2607082,15 25.153681,15.0068634 25.0452901,15.0082315 C15.6547908,15.1248652 7.09740239,20.4384074 2.80456435,28.818173 C-1.48827369,37.1979386 -0.813594935,47.2717134 4.55806021,55 L23.3441123,47.0688327 L31.695153,43.5431519 L50.289444,35.692985 L60,31.5933657 L38.6971751,18.791771 Z" id="Path" fill="#0078D4"></path>
                    <path d="M82.5367545,24.0513115 C82.0705014,24.0209811 81.6018721,24 81.1277839,24 C78.2822188,23.9973022 75.4663533,24.5638231 72.8544245,25.6645178 L72.8538465,25.6623893 L60,30.935022 L63.7273596,33.1112964 L75.9454064,40.245068 L81.2761372,43.3575461 L99.5034543,54 C102.868866,47.9100983 102.829539,40.570657 99.3990515,34.5153543 C95.9685637,28.4600516 89.616904,24.5184866 82.5367545,24.0513428 L82.5367545,24.0513115 Z" id="Path" fill="#1490DF"></path>
                    <path d="M80.8953255,43.5123082 L75.6004626,40.3773504 L63.464625,33.1920145 L59.7623451,31 L49.9956707,35.0625159 L31.2939211,42.8416958 L22.8946188,46.3354948 L4,54.1949425 C8.76581178,60.9678905 16.5852347,65.0043258 24.931659,65 L80.7479705,65 C88.3726249,65.0022519 95.3828837,60.8663664 99,54.2317346 L80.8953255,43.5123082 Z" id="Path" fill="#28A8EA"></path>
                </g>
            </g>
        </g>
    </g>
</svg>