<?xml version="1.0" encoding="UTF-8"?>
<svg width="164px" height="164px" viewBox="0 0 164 164" version="1.1" xmlns="http://www.w3.org/2000/svg" xmlns:xlink="http://www.w3.org/1999/xlink">
    <title>Group 7</title>
    <defs>
        <linearGradient x1="12.0162484%" y1="10.9586506%" x2="89.9244479%" y2="89.628302%" id="linearGradient-1">
            <stop stop-color="#242021" offset="0%"></stop>
            <stop stop-color="#211D1E" offset="100%"></stop>
        </linearGradient>
        <linearGradient x1="7.90715166%" y1="7.13081089%" x2="43.7296944%" y2="39.8355164%" id="linearGradient-2">
            <stop stop-color="#332D2E" offset="0%"></stop>
            <stop stop-color="#1D1A1B" offset="100%"></stop>
        </linearGradient>
    </defs>
    <g id="Page-1" stroke="none" stroke-width="1" fill="none" fill-rule="evenodd">
        <g id="Artboard-Copy-171" transform="translate(-439.000000, -6302.000000)">
            <g id="Group-7" transform="translate(439.000000, 6302.000000)">
                <rect id="Rectangle" stroke="url(#linearGradient-2)" stroke-width="2" fill="url(#linearGradient-1)" x="1" y="1" width="162" height="162" rx="28"></rect>
                <g id="Google_Drive_icon_(2020)" transform="translate(37.000000, 40.000000)" fill-rule="nonzero">
                    <path d="M6.66947368,67.1887071 L10.56,73.8749816 C11.3684211,75.2826183 12.5305263,76.3886186 13.8947368,77.1929825 L27.7894737,53.2631579 L0,53.2631579 C0,54.8216129 0.404210526,56.3800678 1.21263158,57.7877046 L6.66947368,67.1887071 Z" id="Path" fill="#0066DA"></path>
                    <path d="M44,24.8895211 L30.139748,0.771929825 C28.7789233,1.58260516 27.6197022,2.69728375 26.8132875,4.11596559 L1.20962199,48.7031091 C0.418038304,50.0911961 0.0010539466,51.6631492 0,53.2631579 L27.720504,53.2631579 L44,24.8895211 Z" id="Path" fill="#00AC47"></path>
                    <path d="M74.1062736,77.1929825 C75.4703849,76.3886186 76.6324057,75.2826183 77.4407679,73.8749816 L79.0574925,71.1099808 L86.7874566,57.7877046 C87.5958189,56.3800678 88,54.8216129 88,53.2631579 L60.2105263,53.2631579 L66.1236963,64.8258883 L74.1062736,77.1929825 Z" id="Path" fill="#EA4335"></path>
                    <path d="M44,25.4736842 L57.8947368,1.22273684 C56.5305263,0.407578947 54.9642105,0 53.3473684,0 L34.6526316,0 C33.0357895,0 31.4694737,0.458526316 30.1052632,1.22273684 L44,25.4736842 Z" id="Path" fill="#00832D"></path>
                    <path d="M60.2608696,53.2631579 L27.7391304,53.2631579 L13.8947368,77.5141053 C15.2540046,78.3292632 16.8146453,78.7368421 18.4256293,78.7368421 L69.5743707,78.7368421 C71.1853547,78.7368421 72.7459954,78.2783158 74.1052632,77.5141053 L60.2608696,53.2631579 Z" id="Path" fill="#2684FC"></path>
                    <path d="M74.0229358,26.4095374 L61.206422,4.11596559 C60.3990826,2.69728375 59.2385321,1.58260516 57.8761468,0.771929825 L44,24.8895211 L60.2981651,53.2631579 L88,53.2631579 C88,51.6924744 87.5963303,50.121791 86.7889908,48.7031091 L74.0229358,26.4095374 Z" id="Path" fill="#FFBA00"></path>
                </g>
            </g>
        </g>
    </g>
</svg>