<?xml version="1.0" encoding="UTF-8"?>
<svg width="164px" height="164px" viewBox="0 0 164 164" version="1.1" xmlns="http://www.w3.org/2000/svg" xmlns:xlink="http://www.w3.org/1999/xlink">
    <title>Group 13</title>
    <defs>
        <linearGradient x1="12.0162484%" y1="10.9586506%" x2="89.9244479%" y2="89.628302%" id="linearGradient-1">
            <stop stop-color="#242021" offset="0%"></stop>
            <stop stop-color="#211D1E" offset="100%"></stop>
        </linearGradient>
        <linearGradient x1="7.90715166%" y1="7.13081089%" x2="43.7296944%" y2="39.8355164%" id="linearGradient-2">
            <stop stop-color="#332D2E" offset="0%"></stop>
            <stop stop-color="#1D1A1B" offset="100%"></stop>
        </linearGradient>
    </defs>
    <g id="Page-1" stroke="none" stroke-width="1" fill="none" fill-rule="evenodd">
        <g id="Artboard-Copy-171" transform="translate(-752.000000, -6524.000000)">
            <g id="Group-13" transform="translate(752.000000, 6524.000000)">
                <g id="Rectangle" fill="url(#linearGradient-1)" stroke="url(#linearGradient-2)" stroke-width="2">
                    <rect x="1" y="1" width="162" height="162" rx="28"></rect>
                </g>
                <g id="logo-buffer" transform="translate(42.000000, 42.000000)" fill="#FFFFFF" fill-rule="nonzero">
                    <path d="M1.39080609,20.5987055 L36.6453965,37.3441208 C37.5621826,37.7745415 38.7915093,38 40,38 C41.2084907,38 42.4378174,37.7745415 43.3546035,37.3441208 L78.6091939,20.5987055 C80.463602,19.7173679 80.463602,18.2826321 78.6091939,17.4012945 L43.3546035,0.65587918 C42.4378174,0.225458468 41.2084907,0 40,0 C38.7915093,0 37.5621826,0.225458468 36.6453965,0.65587918 L1.39080609,17.4012945 C-0.463602032,18.2826321 -0.463602032,19.7173679 1.39080609,20.5987055 Z" id="Path"></path>
                    <path d="M78.6149915,38.8633247 C78.6149915,38.8633247 72.1795899,35.7265073 71.3257016,35.305458 C70.4718134,34.8844087 70.2427214,34.9054612 69.3471801,35.3265105 C68.4516388,35.7475598 43.355655,48.0000947 43.355655,48.0000947 C42.4184606,48.4421965 41.2105211,48.6737736 40.0025816,48.6737736 C38.7946422,48.6737736 37.5658761,48.4421965 36.6495083,48.0000947 C36.6495083,48.0000947 12.2199738,36.0843993 11.074514,35.5159827 C9.82492145,34.9054612 9.47087023,34.9054612 8.34623693,35.4528253 L1.39017172,38.8422722 C-0.463390572,39.7475282 -0.463390572,41.2212008 1.39017172,42.1264568 L36.6286817,59.3263211 C37.5450496,59.7684229 38.7738156,60 39.9817551,60 C41.1896945,60 42.4184606,59.7684229 43.3348284,59.3263211 L78.5733384,42.1264568 C80.4685538,41.2422533 80.4685538,39.7685807 78.6149915,38.8633247 Z" id="Path"></path>
                    <path d="M78.612104,58.8600741 C78.612104,58.8600741 72.1752335,55.7258961 71.3211503,55.305201 C70.4670672,54.884506 70.2379229,54.9055407 69.3421772,55.3262358 C68.4464314,55.7469308 43.3655508,68.0101913 43.3655508,68.0101913 C42.4281425,68.4519211 41.2199273,68.6833034 40.0117121,68.6833034 C38.803497,68.6833034 37.5744505,68.4519211 36.6578735,68.0101913 C36.6578735,68.0101913 12.222763,56.1045216 11.0770417,55.5365833 C9.82716398,54.9265755 9.47303194,54.9265755 8.34814195,55.473479 L1.39048902,58.8600741 C-0.46349634,59.7645685 -0.46349634,61.2370011 1.39048902,62.1414955 L36.6370422,79.3268879 C37.5536192,79.7896525 38.7826657,80 39.9908809,80 C41.199096,80 42.4281425,79.7686177 43.3447195,79.3268879 L78.5912727,62.1414955 C80.4660893,61.2370011 80.4660893,59.7645685 78.612104,58.8600741 Z" id="Path"></path>
                </g>
            </g>
        </g>
    </g>
</svg>