<?xml version="1.0" encoding="UTF-8"?>
<svg width="165px" height="68px" viewBox="0 0 165 68" version="1.1" xmlns="http://www.w3.org/2000/svg" xmlns:xlink="http://www.w3.org/1999/xlink">
    <title>Disney_wordmark</title>
    <g id="Page-1" stroke="none" stroke-width="1" fill="none" fill-rule="evenodd">
        <g id="Artboard-Copy-164" transform="translate(-642.000000, -1036.000000)" fill="#FFFFFF" fill-rule="nonzero">
            <g id="Disney_wordmark" transform="translate(642.000000, 1036.000000)">
                <path d="M142.599435,29.571181 C139.810342,30.2122807 132.444276,30.5684471 132.444276,30.5684471 L131.538416,33.4652676 C131.538416,33.4652676 135.185692,33.15659 137.855593,33.4177788 C137.855593,33.4177788 138.713776,33.3465455 138.809129,34.367556 C138.856806,35.4123109 138.737614,36.5045547 138.737614,36.5045547 C138.737614,36.5045547 138.666099,37.1456543 137.784078,37.3118653 C136.759027,37.4780764 129.84589,37.786754 129.84589,37.786754 L128.725485,41.5383739 C128.725485,41.5383739 128.320232,42.3931734 129.24993,42.1557291 C130.108112,41.9182848 137.354987,40.5411079 138.308523,40.7310633 C139.309736,40.9685076 140.453979,42.3456846 140.120242,43.580395 C139.738827,45.0762941 132.491953,49.6827136 128.105686,49.374036 C128.105686,49.374036 125.793361,49.5165026 123.862451,46.4059822 C122.003055,43.4379284 124.506088,37.8579872 124.506088,37.8579872 C124.506088,37.8579872 123.385683,35.2460999 124.220027,34.2963227 C124.220027,34.2963227 124.696795,33.8926674 126.127099,33.7739452 L127.914979,30.1173029 C127.914979,30.1173029 125.888715,30.2360251 124.696795,28.7638704 C123.600228,27.3392046 123.504875,26.7218494 124.363057,26.3419385 C125.268916,25.8670499 133.660034,24.3711508 139.428928,24.5611062 C139.428928,24.5611062 141.455192,24.3236619 143.243072,27.8140932 C143.243072,27.8140932 144.053578,29.238759 142.623274,29.571181 M120.858812,43.6278838 C120.14366,45.3612272 118.165072,47.1895484 115.781232,46.0735601 C113.349715,44.9338275 109.511732,37.1456543 109.511732,37.1456543 C109.511732,37.1456543 108.081428,34.2488338 107.795367,34.3438115 C107.795367,34.3438115 107.485468,33.7739452 107.318599,36.9556989 C107.080215,40.1137081 107.366276,46.2635156 106.055164,47.2370372 C104.863243,48.1868145 103.432939,47.7831591 102.622434,46.6671709 C101.954958,45.5511827 101.668897,42.868062 102.050312,38.1904093 C102.479403,33.5127565 103.552131,28.5264261 104.91092,26.9830381 C106.341224,25.4159057 107.485468,26.5556384 107.914559,26.9830381 C107.914559,26.9830381 109.750116,28.6451483 112.849108,33.5602453 L113.373553,34.4625337 C113.373553,34.4625337 116.186485,39.1401865 116.472546,39.1164421 C116.472546,39.1164421 116.71093,39.3538864 116.901637,39.1639309 C117.187698,39.0926976 117.092344,37.5730541 117.092344,37.5730541 C117.092344,37.5730541 116.567899,32.5154904 113.945675,23.9674955 C113.945675,23.9674955 113.564261,22.8752517 113.826483,21.8304967 C114.064867,20.8807195 115.089918,21.3556081 115.089918,21.3556081 C115.089918,21.3556081 119.047093,23.2551626 120.978004,29.6661588 C122.885076,36.077155 121.597802,41.8945404 120.88265,43.6278838 M101.454352,27.1729936 C101.072937,27.8378376 100.906069,28.7638704 99.2612187,29.0250591 C99.2612187,29.0250591 83.2894887,30.1410474 82.5028214,31.2570356 C82.5028214,31.2570356 81.9783765,31.9218796 82.8365591,32.0880907 C83.7424184,32.2780461 87.3658556,32.7529347 89.0822206,32.8479124 C90.9416161,32.8479124 97.1872777,32.8954013 99.4757644,35.6972441 C99.4757644,35.6972441 100.786877,37.0269322 100.7392,40.0424748 C100.691523,43.1292508 100.14324,44.2214946 98.9274811,45.3374828 C97.6640457,46.3822377 86.8414108,51.2261015 79.8567587,43.8178393 C79.8567587,43.8178393 76.6624127,40.2561747 80.9771636,37.5493096 C80.9771636,37.5493096 84.076156,35.6497552 92.0143442,37.8579872 C92.0143442,37.8579872 94.3981845,38.7127867 94.3028309,39.5913307 C94.1598005,40.5411079 92.3242435,41.4908851 89.6543423,41.4433962 C87.0797948,41.3721629 85.1727226,40.1374526 85.554137,40.3511524 C85.911713,40.4698746 82.7650438,38.8315089 81.7876693,39.9474971 C80.8341332,40.992252 81.0725172,41.6096072 82.0260533,42.2507069 C84.4098937,43.6278838 93.778386,43.1292508 96.5674792,40.0187304 C96.5674792,40.0187304 97.6878841,38.7602756 95.9953575,37.7392651 C94.3266693,36.7894879 89.4636351,36.1958771 87.5804013,36.1246438 C85.792521,36.0296661 79.0939298,36.1246438 78.0927168,34.3913004 C78.0927168,34.3913004 77.1391807,33.15659 78.1880705,29.7848809 C79.284637,26.2232164 87.0797948,24.8460394 90.464848,24.5611062 C90.464848,24.5611062 99.7618252,24.1811953 101.502029,26.0807498 C101.502029,26.0807498 101.740413,26.5081495 101.454352,27.1492491 M75.0890781,48.0443479 C73.9686731,48.8754029 71.5848328,48.5192365 70.8935191,47.5694593 C70.2260438,46.7384042 69.9876598,43.4616728 70.1068518,38.3091314 C70.2737207,33.0378679 70.3452359,26.5793828 71.537156,25.5346279 C72.7290762,24.5136174 73.4442283,25.4159057 73.9209963,26.1044942 C74.3977644,26.8168271 75.0175629,27.6003933 75.1129165,29.238759 C75.2559469,30.9008691 75.6611997,39.4488641 75.6611997,39.4488641 C75.6611997,39.4488641 76.1856446,47.2370372 75.1129165,48.0443479 M77.4729184,20.2633643 C74.1832187,21.3793526 71.9424089,21.0231861 70.0353366,20.192131 C69.2009925,21.6880302 68.7003861,22.1391743 68.0805876,22.2341521 C67.1270515,22.3291298 66.2927073,20.8094862 66.1735153,20.3345976 C65.9828081,19.9784312 65.5298784,19.3373316 66.0781617,17.8889213 C64.2187663,16.2268112 64.0757359,13.9948347 64.4094735,12.4989356 C64.8385648,10.7418478 67.985234,4.14089612 77.5205952,3.35732992 C77.5205952,3.35732992 82.1929222,3.02490789 83.0034279,5.49432865 L83.1464583,5.49432865 C83.1464583,5.49432865 87.6757549,5.49432865 87.5804013,9.53088181 C87.5804013,13.567435 82.5743366,18.6012542 77.4729184,20.3345976 M81.7161541,8.77106004 C78.7125153,9.24594865 74.0878651,13.235013 71.8708937,16.5354888 C75.2797853,17.152844 81.239386,16.9153997 83.9092872,11.5491584 C83.9092872,11.5491584 85.1727226,8.17744928 81.7161541,8.77106004 M68.5335172,11.3829474 C67.5799811,12.9263354 67.5323043,13.8523681 67.985234,14.4697233 C69.1056389,12.8076132 71.0842264,10.1957259 74.0640267,8.15370485 C71.77554,8.39114916 69.8446294,9.34092637 68.5335172,11.3829474 M149.750956,47.8781369 C147.557823,53.2443781 145.698428,58.6818527 144.6257,66.8261923 C144.6257,66.8261923 144.387316,68.4170691 143.076204,67.8946917 C141.765091,67.419803 139.619635,65.2828043 139.142867,62.2672617 C138.666099,58.3256862 140.430141,51.6772457 144.02974,44.0315391 C142.98085,42.369429 142.241859,39.9000083 142.837819,36.4333214 C142.837819,36.4333214 143.791356,30.0223252 150.227724,24.2286842 C150.227724,24.2286842 150.990553,23.5875846 151.419645,23.8012845 C151.944089,24.0387288 151.729544,26.0807498 151.300453,27.1255047 C150.919038,28.1227708 148.05843,33.0616123 148.05843,33.0616123 C148.05843,33.0616123 146.27055,36.4333214 146.771156,39.0689532 C150.156209,33.8926674 157.856013,23.3976291 162.623694,26.7218494 C165.651171,28.8588481 165.651171,35.7447329 163.386523,39.7337972 C161.598643,42.8918065 156.544901,49.4215248 149.798633,47.9018813 M159.715409,31.7556686 C157.951367,33.6552231 154.804698,37.2643765 152.325504,42.1557291 C154.947728,41.870796 157.498437,40.4223857 158.285105,39.6863084 C159.54854,38.5703202 162.456825,35.5547775 162.003896,31.5657132 C162.003896,31.5657132 161.717835,29.4762033 159.715409,31.7556686 M52.9193632,50.6799796 C44.4805686,53.2443781 36.5185419,52.0571566 32.1799526,50.9174239 C32.0607606,52.6745118 31.8700534,53.4105891 31.5839925,53.6955223 C31.2502549,54.0754332 28.4850001,55.6425656 26.9593423,53.4105891 C26.291867,52.3420898 25.9581294,50.4187909 25.7674222,48.6617031 C15.9936769,44.245239 11.4643804,37.7392651 11.3213499,37.5018208 C11.0829659,37.2643765 8.86599443,34.9611667 11.0829659,32.1118351 C13.156907,29.5474366 20.022367,26.9592937 26.172675,25.9382832 C26.4110591,20.7145085 26.9831807,16.6779554 27.7221712,14.8971231 C28.6041921,12.7601243 29.7245971,14.6596788 30.72581,16.0843446 C31.5363157,17.152844 32.0369222,21.735519 32.084599,25.3921613 C36.0894507,25.2022059 38.5209678,25.487139 42.9787492,26.3419385 C48.8429963,27.3392046 52.7524944,30.3310028 52.4425952,33.7027119 C52.1565343,37.0269322 49.1052188,38.4041091 47.9132986,38.4990869 C46.7213785,38.5940646 44.8143062,37.7155207 44.8143062,37.7155207 C43.4793556,37.0981655 44.6951142,36.5282991 46.2446104,35.8634551 C47.9609754,35.0324 47.579561,34.201345 47.579561,34.201345 C46.9597625,32.3017905 39.3553119,31.0433357 31.7985381,31.0433357 C31.7985381,35.198611 31.965407,42.0844958 32.084599,46.0973046 C37.3767245,47.0945707 41.3338994,46.8808708 41.3338994,46.8808708 C41.3338994,46.8808708 60.6430058,46.3347489 61.1912891,34.0588784 C61.7872492,21.7592635 41.8821826,9.98202599 27.2215648,6.27789485 C12.5847853,2.45504156 4.28902104,5.16190663 3.57386895,5.51807308 C2.78720165,5.89798397 3.50235374,6.04045055 3.50235374,6.04045055 C3.50235374,6.04045055 4.28902104,6.1591727 5.71932522,6.63406131 C7.14962941,7.10894992 6.00538606,7.82128283 6.00538606,7.82128283 C3.50235374,8.67608232 0.713260587,8.17744928 0.164977317,7.03771662 C-0.383305953,5.9217284 0.522553362,4.90071789 1.5952815,3.40481878 C2.59649443,1.8614308 3.74073777,1.90891966 3.74073777,1.90891966 C21.8579241,-4.38335438 43.9799621,6.89525004 43.9799621,6.89525004 C64.6716959,17.2953105 68.1997796,29.5236922 67.8183651,34.2725783 C67.4846275,38.950231 65.6729089,46.8571264 52.9193632,50.7037241 M13.1092302,33.7027119 C11.0591275,34.6524891 12.4894317,36.1721327 12.4894317,36.1721327 C16.351253,40.2799191 21.0712568,42.868062 25.6005534,44.4826833 C26.1249982,37.3593542 26.0773214,34.8187002 26.0773214,31.2332912 C19.0688309,31.7081798 15.0163024,32.8479124 13.1092302,33.7027119" id="Shape"></path>
            </g>
        </g>
    </g>
</svg>