<?xml version="1.0" encoding="UTF-8"?>
<svg width="171px" height="46px" viewBox="0 0 171 46" version="1.1" xmlns="http://www.w3.org/2000/svg" xmlns:xlink="http://www.w3.org/1999/xlink">
    <title>Netflix_2015_logo</title>
    <g id="Page-1" stroke="none" stroke-width="1" fill="none" fill-rule="evenodd">
        <g id="Artboard-Copy-164" transform="translate(-915.000000, -1046.000000)" fill="#D81F26" fill-rule="nonzero">
            <g id="Netflix_2015_logo" transform="translate(915.000000, 1046.000000)">
                <path d="M23.513001,43.0349712 C20.9406533,43.4845958 18.3230508,43.6194 15.6152725,43.9784348 L7.35617285,19.9004994 L7.35617285,45.0118233 C4.7838252,45.2812656 2.43708398,45.6406328 0,46 L0,0 L6.86003906,0 L16.2470039,26.0999993 L16.2470039,0 L23.513001,0 L23.513001,43.0349712 Z M37.7292129,16.8457119 C40.527501,16.8457119 44.8148584,16.7109076 47.3872061,16.7109076 L47.3872061,23.8982518 C44.182793,23.8982518 40.4371582,23.8982518 37.7292129,24.0330561 L37.7292129,34.7246461 C41.9716494,34.4552038 46.2139189,34.0955041 50.5011094,33.9606999 L50.5011094,40.8782693 L30.5081367,42.4508748 L30.5081367,0 L50.5011094,0 L50.5011094,7.18751039 L37.7292129,7.18751039 L37.7292129,16.8457119 Z M77.3537871,7.18767661 L69.8621836,7.18767661 L69.8621836,40.2501247 C67.4250996,40.2501247 64.9880156,40.2501247 62.6416084,40.3397171 L62.6416084,7.18767661 L55.1500049,7.18767661 L55.1500049,0 L77.3541211,0 L77.3537871,7.18767661 L77.3537871,7.18767661 Z M89.0876602,16.3517066 L98.9714268,16.3517066 L98.9714268,23.5390508 L89.0876602,23.5390508 L89.0876602,39.8458781 L82.0016807,39.8458781 L82.0016807,0 L102.175673,0 L102.175673,7.18751039 L89.0876602,7.18751039 L89.0876602,16.3517066 Z M113.909546,33.5566195 C118.016552,33.646212 122.168312,33.9611985 126.185142,34.185429 L126.185142,41.2831807 C119.731562,40.8786017 113.277814,40.4748538 106.688804,40.3397171 L106.688804,0 L113.909546,0 L113.909546,33.5566195 Z M132.277685,41.7773522 C134.579338,41.9123227 137.016422,42.0471269 139.363163,42.3162368 L139.363163,0 L132.277685,0 L132.277685,41.7773522 Z M171,0 L161.838308,21.877019 L171,46 C168.291888,45.6406328 165.584109,45.1464613 162.876164,44.6971692 L157.686381,31.4005825 L152.406589,43.6194 C149.788485,43.1697755 147.261226,43.0349712 144.644124,42.675604 L153.940913,21.6072443 L145.546383,0 L153.308514,0 L158.047251,12.0840133 L163.102104,0 L171,0 L171,0 Z" id="Shape"></path>
            </g>
        </g>
    </g>
</svg>