<?xml version="1.0" encoding="UTF-8"?>
<svg width="39px" height="9px" viewBox="0 0 39 9" version="1.1" xmlns="http://www.w3.org/2000/svg" xmlns:xlink="http://www.w3.org/1999/xlink">
    <title>Group 7</title>
    <g id="Page-1" stroke="none" stroke-width="1" fill="none" fill-rule="evenodd">
        <g id="Artboard-Copy-30" transform="translate(-788.000000, -148.000000)">
            <g id="Group-7" transform="translate(788.000000, 148.000000)">
                <path d="M4.5,9 C6.98528137,9 9,6.98528137 9,4.5 C9,2.01471863 6.98528137,0 4.5,0 C2.01471863,0 0,2.01471863 0,4.5 C0,6.98528137 2.01471863,9 4.5,9 Z" id="Oval" fill="#F37167"></path>
                <path d="M19.5,9 C21.9852814,9 24,6.98528137 24,4.5 C24,2.01471863 21.9852814,0 19.5,0 C17.0147186,0 15,2.01471863 15,4.5 C15,6.98528137 17.0147186,9 19.5,9 Z" id="Oval" fill="#F6C162"></path>
                <path d="M34.5,9 C36.9852814,9 39,6.98528137 39,4.5 C39,2.01471863 36.9852814,0 34.5,0 C32.0147186,0 30,2.01471863 30,4.5 C30,6.98528137 32.0147186,9 34.5,9 Z" id="Oval" fill="#6BCA60"></path>
            </g>
        </g>
    </g>
</svg>