<?xml version="1.0" encoding="UTF-8"?>
<svg width="59.741811px" height="117.932604px" viewBox="0 0 59.741811 117.932604" version="1.1" xmlns="http://www.w3.org/2000/svg" xmlns:xlink="http://www.w3.org/1999/xlink">
    <title>32</title>
    <g id="Page-1" stroke="none" stroke-width="1" fill="none" fill-rule="evenodd">
        <g id="Artboard-Copy-161" transform="translate(-300.000000, -757.000000)" fill="#fff" fill-rule="nonzero">
            <g id="32" transform="translate(329.870906, 815.966302) scale(-1, 1) translate(-329.870906, -815.966302) translate(300.000000, 757.000000)">
                <path d="M49.2818948,110.102408 C49.6059542,109.535304 49.686969,109.373274 49.7679839,109.211244 C49.8489987,108.9682 49.9300136,108.725155 50.0920433,108.320081 C48.6337761,108.320081 48.1476871,107.266888 47.7426129,106.13268 C46.4463754,102.243968 45.8792715,98.193226 45.4741973,94.142484 C44.7450637,86.5270889 44.1779599,78.9115318 43.4488263,71.2961367 C43.2057818,68.7036618 42.8007076,66.1111869 42.2336037,63.6807417 C41.4234553,60.5211629 40.6943217,60.2781183 37.6967726,61.6553706 C36.967639,61.97943 36.1574906,62.3845042 35.3473422,62.6275487 C32.349793,63.5997268 29.838333,62.465519 28.9471697,59.3869551 C28.3800658,57.5236137 28.1370213,55.4172279 28.0560065,53.4728717 C27.8129619,47.8018328 28.2180361,42.0497791 28.9471697,36.3787402 C29.9193478,28.3582709 31.0535556,20.3378016 32.1067485,12.3173324 C32.349793,10.6970355 32.4308079,9.07673873 32.5118227,7.4564176 C32.4308079,7.05134339 32.349793,6.4842395 32.2687782,5.67409109 C31.2966001,6.40322466 30.4864517,6.88931371 29.7573181,7.53743244 C25.1394722,11.4261691 21.0887301,15.8819854 17.2810326,20.5808462 C12.6631866,26.251885 8.45041491,32.2469833 4.80477946,38.6471557 C4.4807201,39.1332448 4.23767557,39.7003487 3.83260137,40.1054229 C3.18448264,40.9155713 2.45534907,41.2396307 1.40215613,40.9155713 C0.510992881,40.5915119 -0.137125849,39.7003487 0.0249035097,38.6471557 C0.105918675,37.9180222 0.267948357,37.1078738 0.673022563,36.3787402 C1.64520066,34.3533692 2.61737875,32.2469833 3.75158653,30.3026271 C9.50360784,20.8238907 16.4708842,12.3173324 24.6533831,4.86394268 C25.9496206,3.64872006 27.4889026,2.59552713 28.9471697,1.46131935 C29.1902142,1.29928967 29.5142736,1.13725999 29.7573181,0.975230307 C34.0511047,-1.29318525 37.6157577,0.48913883 37.6967726,5.35003173 C37.7777874,8.8336942 37.453728,12.3173324 37.0486538,15.8009705 C35.9954609,25.1986921 34.6182086,34.5964137 33.6460305,43.9941353 C33.2409563,47.720818 33.402986,51.5285155 33.402986,55.2551982 C33.402986,56.0653466 33.6460305,56.875495 33.8080602,57.8476731 C35.0232828,57.2805692 35.9954609,56.875495 37.0486538,56.4704208 C41.1804107,54.7691091 44.2589747,55.9033169 46.2843457,59.8730441 C47.8236277,62.8705932 48.3907316,66.1111869 48.5527613,69.4327954 C49.1198652,80.9369028 49.5249394,92.4411723 50.0110284,104.026295 C50.0920433,105.079488 50.0110284,106.051666 50.0110284,107.347903 C50.9832065,106.942829 50.9832065,106.13268 51.226251,105.565577 C52.9275627,100.623671 54.9529337,95.7627808 57.4643938,91.1449348 C57.9504828,90.3347864 58.5175867,89.524638 59.1657055,88.4714451 C59.8138242,89.7676825 59.8138242,90.7398606 59.6517945,91.7120387 C58.9226609,95.5197363 58.3555571,99.4084486 57.4643938,103.135131 C56.5732305,106.861814 55.1959782,110.426467 54.0617705,114.072135 C53.8187259,114.882283 53.4946666,115.692432 53.0895924,116.34055 C51.8743698,118.203892 49.7679839,118.446936 48.0666722,116.988669 C47.7426129,116.745625 47.4995683,116.421565 47.2565238,116.097506 C44.8260786,112.775897 42.3146185,109.454289 39.9651881,106.051666 C39.2360545,104.998473 38.6689507,103.78325 38.1828616,102.649042 C37.9398171,102.081938 37.7777874,101.43382 37.7777874,100.785701 C37.6967726,99.8135228 38.1018468,99.0033744 39.0740249,98.5983002 C40.046203,98.193226 40.8563514,98.5172854 41.5044701,99.2464189 C41.9095443,99.732508 42.2336037,100.299612 42.6386779,100.866716 C44.6640489,103.78325 46.8514496,106.780799 49.2818948,110.102408 Z" id="Path"></path>
            </g>
        </g>
    </g>
</svg>