<?xml version="1.0" encoding="UTF-8"?>
<svg width="116.813559px" height="18.8391799px" viewBox="0 0 116.813559 18.8391799" version="1.1" xmlns="http://www.w3.org/2000/svg" xmlns:xlink="http://www.w3.org/1999/xlink">
    <title>noun-star-503217</title>
    <g id="Page-1" stroke="none" stroke-width="1" fill="none" fill-rule="evenodd">
        <g id="Artboard-Copy-161" transform="translate(-1080.000000, -771.000000)" fill="#F3CE49" fill-rule="nonzero">
            <g id="noun-star-503217" transform="translate(1080.000000, 771.000000)">
                <path d="M19.4400297,7.13969766 C19.33809,6.82202306 19.0457017,6.60689918 18.7162571,6.60689918 L12.4110281,6.60707126 L10.4624831,0.532798484 C10.360887,0.215639327 10.0683247,0 9.73871047,0 C9.40877437,0 9.11688624,0.215110669 9.01493785,0.532798484 L7.06674083,6.60707126 L0.761076888,6.60707126 C0.431480034,6.60707126 0.139252655,6.82218192 0.0373042737,7.13986974 C-0.0646354086,7.45754434 0.0471581241,7.80549338 0.313895798,8.00184552 L5.41522925,11.755621 L3.46633633,17.8298938 C3.36439665,18.1475684 3.47619018,18.4955174 3.74292785,18.6918695 C3.87646544,18.7901337 4.03328067,18.8391799 4.19043079,18.8391799 C4.34758527,18.8391799 4.50440049,18.7903055 4.63793373,18.6918695 L9.73883225,14.9373892 L14.8397308,18.6915171 C15.1064667,18.8880411 15.4676876,18.8880411 15.7347366,18.6915171 C16.0018118,18.4949931 16.1130939,18.1472203 16.0113282,17.8295413 L14.0629572,11.7557091 L19.1638557,8.00193363 C19.4309309,7.80540967 19.5423825,7.45763685 19.4404472,7.13960541 L19.4400297,7.13969766 Z" id="Path"></path>
                <path d="M43.7739704,7.13969766 C43.6720307,6.82202306 43.3796424,6.60689918 43.0501978,6.60689918 L36.7449688,6.60707126 L34.7964238,0.532798484 C34.6948277,0.215639327 34.4022654,0 34.0726512,0 C33.7427151,0 33.4508269,0.215110669 33.3488786,0.532798484 L31.4006815,6.60707126 L25.0950176,6.60707126 C24.7654207,6.60707126 24.4731934,6.82218192 24.371245,7.13986974 C24.2693053,7.45754434 24.3810988,7.80549338 24.6478365,8.00184552 L29.74917,11.755621 L27.800277,17.8298938 C27.6983374,18.1475684 27.8101309,18.4955174 28.0768686,18.6918695 C28.2104062,18.7901337 28.3672214,18.8391799 28.5243715,18.8391799 C28.681526,18.8391799 28.8383412,18.7903055 28.9718744,18.6918695 L34.072773,14.9373892 L39.1736715,18.6915171 C39.4404074,18.8880411 39.8016283,18.8880411 40.0686774,18.6915171 C40.3357525,18.4949931 40.4470346,18.1472203 40.3452689,17.8295413 L38.3968979,11.7557091 L43.4977964,8.00193363 C43.7648716,7.80540967 43.8763233,7.45763685 43.7743879,7.13960541 L43.7739704,7.13969766 Z" id="Path"></path>
                <path d="M68.1079111,7.13969766 C68.0059714,6.82202306 67.7135831,6.60689918 67.3841385,6.60689918 L61.0789095,6.60707126 L59.1303645,0.532798484 C59.0287684,0.215639327 58.7362061,0 58.4065919,0 C58.0766558,0 57.7847677,0.215110669 57.6828193,0.532798484 L55.7346222,6.60707126 L49.4289583,6.60707126 C49.0993614,6.60707126 48.8071341,6.82218192 48.7051857,7.13986974 C48.603246,7.45754434 48.7150395,7.80549338 48.9817772,8.00184552 L54.0831107,11.755621 L52.1342177,17.8298938 C52.0322781,18.1475684 52.1440716,18.4955174 52.4108093,18.6918695 C52.5443469,18.7901337 52.7011621,18.8391799 52.8583122,18.8391799 C53.0154667,18.8391799 53.1722819,18.7903055 53.3058151,18.6918695 L58.4067137,14.9373892 L63.5076122,18.6915171 C63.7743481,18.8880411 64.135569,18.8880411 64.4026181,18.6915171 C64.6696932,18.4949931 64.7809753,18.1472203 64.6792096,17.8295413 L62.7308386,11.7557091 L67.8317371,8.00193363 C68.0988123,7.80540967 68.210264,7.45763685 68.1083286,7.13960541 L68.1079111,7.13969766 Z" id="Path"></path>
                <path d="M92.4418518,7.13969766 C92.3399121,6.82202306 92.0475238,6.60689918 91.7180792,6.60689918 L85.4128502,6.60707126 L83.4643052,0.532798484 C83.3627091,0.215639327 83.0701468,0 82.7405326,0 C82.4105965,0 82.1187084,0.215110669 82.01676,0.532798484 L80.068563,6.60707126 L73.762899,6.60707126 C73.4333022,6.60707126 73.1410748,6.82218192 73.0391264,7.13986974 C72.9371867,7.45754434 73.0489802,7.80549338 73.3157179,8.00184552 L78.4170514,11.755621 L76.4681585,17.8298938 C76.3662188,18.1475684 76.4780123,18.4955174 76.74475,18.6918695 C76.8782876,18.7901337 77.0351028,18.8391799 77.1922529,18.8391799 C77.3494074,18.8391799 77.5062226,18.7903055 77.6397559,18.6918695 L82.7406544,14.9373892 L87.8415529,18.6915171 C88.1082888,18.8880411 88.4695097,18.8880411 88.7365588,18.6915171 C89.003634,18.4949931 89.114916,18.1472203 89.0131503,17.8295413 L87.0647793,11.7557091 L92.1656778,8.00193363 C92.432753,7.80540967 92.5442047,7.45763685 92.4422693,7.13960541 L92.4418518,7.13969766 Z" id="Path"></path>
                <path d="M116.775793,7.13969766 C116.673853,6.82202306 116.381465,6.60689918 116.05202,6.60689918 L109.746791,6.60707126 L107.798246,0.532798484 C107.69665,0.215639327 107.404088,0 107.074473,0 C106.744537,0 106.452649,0.215110669 106.350701,0.532798484 L104.402504,6.60707126 L98.0968397,6.60707126 C97.7672429,6.60707126 97.4750155,6.82218192 97.3730671,7.13986974 C97.2711274,7.45754434 97.382921,7.80549338 97.6496586,8.00184552 L102.750992,11.755621 L100.802099,17.8298938 C100.700159,18.1475684 100.811953,18.4955174 101.078691,18.6918695 C101.212228,18.7901337 101.369043,18.8391799 101.526194,18.8391799 C101.683348,18.8391799 101.840163,18.7903055 101.973697,18.6918695 L107.074595,14.9373892 L112.175494,18.6915171 C112.44223,18.8880411 112.80345,18.8880411 113.070499,18.6915171 C113.337575,18.4949931 113.448857,18.1472203 113.347091,17.8295413 L111.39872,11.7557091 L116.499619,8.00193363 C116.766694,7.80540967 116.878145,7.45763685 116.77621,7.13960541 L116.775793,7.13969766 Z" id="Path"></path>
            </g>
        </g>
    </g>
</svg>